v 222.9800415 1516.056763 -609.7815552
vn -0.3750571311 0.530190289 -0.76041466
v 578.5650024 1502.916748 -608.2765503
vn 0.06446222961 0.3229115903 -0.9442312717
v 489.6400146 861.3167725 -628.8416138
vn 0.002124782419 0.0006490633241 -0.9999975562
v 573.5200195 39.39669418 -316.561554
vn 0.05151412264 -0.9732693434 -0.2238147855
v -137.1799927 49.55669785 -138.3490753
vn -0.0006335623912 -0.9999943376 0.003306686413
v 578.3400879 49.55669785 -628.8416138
vn 0.05574453995 -0.3726460934 -0.9262977242
v -565.0599976 49.55669785 -628.8416138
vn 0.002471416024 -0.9430160522 -0.3327381015
v 1210.26001 1858.476929 394.0584717
vn 0.006581798196 0.99967134 -0.02477650344
v 1209.845093 1806.746948 -265.3415527
vn 0.01657712273 0.8704677224 -0.4919463396
v 578.6100464 1870.02832 -250.7290344
vn 0.06444582343 0.9706933498 -0.2315192521
v 1206.940063 983.3167725 -585.6416016
vn 0.0091235172 -0.02198021486 -0.9997167587
v 1210.219971 1474.636841 -585.6416016
vn 0.02480432764 0.3623346388 -0.9317179322
v 578.585022 1618.099365 -466.2441101
vn 0.05328618735 0.69671911 -0.7153621912
v 1210.180176 470.2967834 -567.2814941
vn -2.075547127e-05 -0.2507719398 -0.9680461884
v 578.4200439 474.586731 -570.9215088
vn 0.07948217541 -0.3689509928 -0.9260441661
v 1210.140137 457.3167419 -449.3815918
vn -6.464923354e-05 -0.9946777225 -0.1030350178
v 1210.13501 448.0467529 -327.266571
vn 0.0004900955828 -0.5139975548 -0.8577914834
v 578.3300781 446.8392639 -327.0177917
vn 0.450740993 -0.456675142 -0.7669943571
v 1208.52002 235.6567688 -316.561554
vn 0.0002565086179 -0.02490594797 -0.9996897578
v -799.6599731 33.05672073 -328.9215393
vn 0.1080793291 -0.9912034869 -0.0763836354
v -1762.060059 39.39669418 -316.561554
vn -0.4558564425 -0.8668804765 0.2017748952
v -1307.660156 29.23674774 61.59844971
vn 0.003968890756 0.9999569654 0.00838257093
v -1815.660034 29.23674774 607.8084717
vn -0.02320664935 0.633498311 -0.7733959556
v 1206.940063 943.8768311 675.9984741
vn -0.0232464131 -1.565604125e-18 0.9997297525
v 571.9400024 29.23674774 675.9984741
vn -0.3170958459 -0.5866497159 0.7451794147
v 1206.940063 29.23674774 675.9984741
vn 0 -0.4769144952 0.8789497018
v 1206.940063 29.23674774 179.7184753
vn -0.004002571572 -0.9999887347 -0.00256068469
v 1841.900146 1858.476929 675.9984741
vn 0.6837266684 0.392898351 0.6149379611
v 1206.940063 1858.476929 675.9984741
vn 0 0.2945865095 0.9556248188
v 1206.940063 29.23674774 -316.561554
vn -0.007395700552 -0.9232831001 -0.3840489984
v 1841.900146 474.6367188 -570.9615479
vn 0.2398935258 -0.2389078438 -0.9409432411
v 1841.900146 446.5317078 -326.1115723
vn 0.9830107689 -0.09204115719 -0.1588023901
v 571.9400024 1858.476929 675.9984741
vn -0.3259398043 0.2455851436 0.9129354954
v -1439.220215 436.896698 -599.621582
vn -0.01221720316 0.2027015537 0.979164362
v -965.8999634 1034.836792 -616.121582
vn 0.009777936153 0.01203724183 0.9998797178
v -1439.220215 1495.036743 -616.121582
vn -0.01570204832 -0.3646828532 0.9309993982
v -423.1800232 1510.436646 -622.4815674
vn 0.08676430583 -0.3264296949 0.9412308931
v 1841.900146 29.23674774 -316.561554
vn 0.3714720905 -0.8573586345 -0.3562929332
v -57.01998138 962.9967651 -441.4415588
vn -0.1838272363 0.07113925368 -0.9803809524
v -423.1800232 387.5417786 -477.3066101
vn -0.09863065928 0.04051719978 -0.9942989349
v -914.5800781 1074.736694 -334.8815308
vn -0.07047579437 0.1079932153 -0.9916504622
v -650.6199951 420.3967285 -448.621521
vn -0.07642301172 0.5249837637 -0.8476742506
v 466.4000549 348.2367554 -595.8215942
vn -0.9502417445 -0.02309175767 -0.3106564283
v 449.2600403 1103.026855 -590.7215576
vn -0.4863045812 -0.01969234273 -0.873567462
v 578.4650269 348.3867798 -609.7841187
vn 0.4850878417 -0.02609135397 -0.8740760684
v -799.6599731 447.2167053 -429.121582
vn -0.08769277483 0.3609474003 -0.9284540415
v -1359.359985 457.211731 -368.9277649
vn -0.07548777014 0.3009969294 -0.9506326318
v -1431.885132 418.4818115 -378.2015381
vn -0.07512594759 0.967367053 -0.241985634
v -565.0599976 198.5567169 -486.7615967
vn -0.04004505649 0.4296789765 -0.9020933509
v -627.789978 355.9967651 -459.4715881
vn 0.1138137281 -0.625733614 -0.7716889977
v -692.4199829 236.9967957 -468.081543
vn 0.7992681265 0.1221095994 -0.5884383321
v -1708.459961 368.2967224 -343.3215637
vn -0.09090155363 0.9925786257 0.08077516407
v -1422.685059 361.5367737 -386.2565308
vn -0.06179464236 0.9760529995 -0.2085712403
v -1708.459961 60.92668533 -595.7716064
vn -0.03974710032 -0.9179156423 -0.3947798014
v -692.4199829 130.4517212 -594.0615845
vn 0.1174248606 0.08192612231 -0.9896966815
v -1513.809937 124.5667725 -607.1615601
vn -0.002899855375 -0.1305487454 -0.9914376736
v 364.0000305 1534.656738 -565.5615234
vn -0.4145385027 -0.06638663262 -0.9076070786
v 222.9800415 1603.276978 -523.9615479
vn -0.2528328896 0.1165972576 -0.9604585171
v -56.93997955 1700.116821 -441.4415588
vn -0.2002122551 0.2548560202 -0.9460250735
v -626.875 1852.731812 -273.5215454
vn -0.1836055666 -0.8997558951 -0.395889312
v -423.1800232 1795.706909 -333.4015503
vn -0.2865259349 -0.06872539967 -0.9556043744
v 222.9800415 1834.196899 -321.1115723
vn -0.01717764512 0.6686537862 -0.7433754206
v -423.1800232 1899.616821 -251.151535
vn 0.02190882526 0.94074893 -0.3383954465
v 222.9800415 1880.876831 -281.5615845
vn 0.03867347166 0.9711242914 -0.2354186028
v 222.9800415 1877.756714 392.0985107
vn 0.01383697335 0.9224933386 0.3857648969
v -569.1549683 1876.93689 -250.3215637
vn -0.01899852604 0.9986632466 0.04807021096
v -799.6599731 1835.216797 -256.4615479
vn -0.01243677456 0.09863094985 -0.9950463772
v -1704.670044 1866.021729 -248.6065369
vn -0.007432367187 0.7769675851 -0.6294966936
v -1439.220215 1881.106689 -246.7415466
vn -0.03235461935 -0.8161765337 0.5768960118
v -1708.459961 1111.996704 -299.3615417
vn -0.26194489 0.07274772227 -0.9623370767
v -1708.459961 448.0921021 -326.383728
vn -0.7086292505 0.04838361219 -0.7039201856
v -1696.02002 1828.378296 -244.4690094
vn -0.5501828194 -0.62439996 -0.5544579029
v 578.4750366 920.4717407 -588.1815186
vn 0.07486394048 -0.03621064872 -0.9965360761
v -692.4199829 1876.476685 439.7584534
vn 0.00958177913 0.4439797401 0.8959856033
v -799.6599731 1869.136841 439.7584534
vn 0.004664562643 0.1264061034 0.9919676185
v -799.6599731 1878.32666 -156.2765503
vn 0.00808128342 0.9998961687 -0.0119299069
v -1860.820068 93.97673798 -584.3815918
vn -0.6343115568 -0.3924786448 -0.6660400629
v -1860.820068 49.55669785 -344.6815491
vn -0.5967567563 -0.3165141642 0.7373602986
v -1860.820068 347.5167236 -344.6815491
vn -0.7908191681 0.5731881261 0.2146169096
v -1860.820068 347.5167236 -628.8416138
vn -0.6703377366 0.5097892284 -0.5392237306
v -1708.304932 64.71669769 -342.6415405
vn -0.0361219123 -0.9761411548 -0.2141112685
v -999.0643311 49.55669785 -460.6503296
vn -0.01225336734 -0.9998520613 -0.01206930261
v -1311.780029 49.55669785 -342.6415405
vn -0.007886901498 -0.8830866218 -0.4691436589
v -692.4199829 49.55669785 -344.6815491
vn 0.008441466838 -0.9987857938 -0.04853506014
v 571.9400024 49.55669785 438.5585022
vn -0.1276433319 -0.5294433832 0.8386875987
v -565.2200317 49.55669785 439.7584534
vn 0.0004034087469 -0.3248541057 0.9457640648
v -1294.327515 49.55669785 -316.561554
vn -0.005213128868 -0.9945394993 0.1042308211
v -1708.459961 49.55669785 439.7584534
vn -0.4318907559 -0.6453769207 0.6300468445
v -692.4199829 347.5167236 -628.8416138
vn 0.1048306897 0.5924779177 -0.7987368107
v -1632.23999 347.5167236 -628.8416138
vn -0.01759592816 0.7091577649 -0.7048302293
v -1815.660034 1487.006836 -573.3615723
vn -0.01143759675 -0.2532387078 0.9673361778
v -799.6599731 1479.776855 -598.3415527
vn 0.4737397134 0.6208073497 -0.6246350408
v -1815.660034 1871.17688 -214.9015503
vn -0.06257601827 0.9399248362 -0.3355972767
v -1815.660034 444.528595 -324.7615662
vn -0.1721856594 0.7692853808 0.6152659059
v -1708.459961 962.9967651 -103.2415466
vn -0.9999883175 0.002518709516 -0.004130964167
v -1708.459961 248.8567352 -316.561554
vn -0.9952596426 0.0528184697 0.08166029304
v -1708.459961 962.9967651 439.7584534
vn -0.5746898055 0 0.8183713555
v -1708.459961 1858.476929 155.7784729
vn -0.9977187514 -0.0671172142 -0.007248106413
v -1708.459961 1858.476929 439.7584534
vn -0.56595999 -0.4305472076 0.7030777931
v -799.6599731 947.0568237 691.8684692
vn 1 0 1.235637264e-15
v -1307.700073 943.8768311 701.3984985
vn 0.004658051766 2.396929533e-19 0.999989152
v -799.6599731 16.55668831 688.6984253
vn 0.1912006587 -0.9810764194 0.03051845357
v -799.6599731 1871.17688 688.6984253
vn 0.1797024012 0.9821203351 0.05609554052
v -1815.660034 3.876739502 701.3984985
vn -0.08741770685 -0.5421512127 0.8357213736
v -1815.660034 1169.126831 688.6984253
vn -0.98481673 0.1053916886 0.1379441768
v -1815.660034 1883.876953 701.3984985
vn -0.03827166557 0.5780763626 0.8150846362
v -1307.700073 1883.876953 237.5584564
vn 0.0028025785 0.9999911189 -0.003151195357
v -1815.660034 1484.916748 -611.0415649
vn -0.04489635676 0.2599927187 -0.9645662904
v -1815.660034 468.1617432 -557.0865479
vn -0.4326387644 0.9009295106 -0.03390752897
v -1307.700073 983.7967529 -611.0415649
vn -0.00995916035 -0.03075767867 -0.9994772673
v -799.6599731 457.2967529 -589.541626
vn 0.01719456166 -0.3610335588 -0.9323942661
v -1815.660034 431.9167786 -341.9615784
vn -0.04168396443 -0.9143984914 -0.4026634395
v -1815.660034 3.876739502 -341.9615784
vn -0.03903295845 -0.9948468804 -0.09357409924
v -1307.700073 3.876739502 179.7184753
vn 0.0205966495 -0.9997557998 -0.008003960364
v -799.6599731 474.6367188 -570.9615479
vn 0.02580267191 0.1675563157 0.9855247736
v -799.6599731 29.23674774 439.7584534
vn 0.008518559858 0.9998750687 0.01331691816
v -1815.660034 1858.046997 646.918457
vn -0.03018316068 -0.3161628246 -0.9482246637
v 577.585083 1864.756836 406.7585144
vn -0.1407329291 0.9347996712 0.3261039555
v 222.9800415 348.2367554 -609.7815552
vn -0.1807084978 -0.05501266941 -0.9819969535
v -914.6200562 962.9967651 439.7584534
vn 0 0 1
v -1345.670288 1858.476929 439.7584534
vn 0.003373825923 -0.2760743499 0.9611303806
v 273.7487793 1414.376831 439.7584534
vn 0.005149033852 0.01439024787 0.9998831749
v 571.9400024 1169.02063 439.7584534
vn -0.8190284371 0.01151605509 0.5736373663
v -1307.700073 943.8768311 675.9984741
vn 0.0342990011 0.01061096974 -0.9993552566
v 1841.900146 943.8768311 675.9984741
vn 0.8797312975 0 0.4754711688
v 1841.900146 29.23674774 675.9984741
vn 0.6642398834 -0.4718668759 0.5797646642
v 571.9400024 940.1368408 616.9384766
vn -0.3486830592 -5.870793216e-18 0.9372407198
v 1841.900146 1858.476929 -215.4415588
vn 0.5954840779 0.7834709883 -0.1776848882
v 1841.900146 1474.636841 -585.6416016
vn 0.5819209218 0.2376015335 -0.7777618766
v 1841.900146 1153.056763 -48.42154694
vn 1 0 0
v -1307.700073 983.3167725 -585.6416016
vn 0.01912161335 0.02155989036 0.9995846748
v -423.1800232 390.8317261 -605.0365601
vn 0.2036371082 0.977802515 0.04933789
v -478.417511 577.296814 -614.4689941
vn 0.002280747052 0.01913148165 0.9998143911
v -1439.220215 1917.15686 -254.0015869
vn -0.04805171117 0.8285992146 -0.5577762723
v -1439.220215 1525.836914 -628.8416138
vn -0.03283936903 0.207941696 -0.9775897861
v -1439.220215 1901.896851 -170.2415466
vn -0.07761523873 0.1968279332 0.977361083
v -1439.220215 380.9767761 -612.3416138
vn -0.04269495234 -0.2924729586 -0.9553202391
v -491.3900452 1135.861694 -628.8416138
vn -0.01082651503 0.01298430748 -0.9998570681
v -489.4243774 570.7211304 -638.7684326
vn -0.008386147209 -0.03373413533 -0.9993956685
v -967.5800781 1050.556763 -628.8416138
vn -0.0143320132 -0.003860015888 -0.9998898506
v -463.1521606 1117.989258 -652.3240356
vn 0.07889322937 0.07808077335 -0.9938205481
v -460.8349915 568.8742676 -637.7290649
vn 0.4346988499 -0.04300234094 -0.8995485902
v -474.3899536 1112.616943 -628.8416138
vn -0.3669750392 -0.04788504168 -0.9289975166
v -470.8500061 583.2367554 -628.8416138
vn -0.003863262245 0.1254784614 -0.9920887947
v -423.1800232 1901.896851 -170.2415466
vn 0.07826756686 0.19681786 0.9773110747
v -894.9404907 1641.912842 -530.8599243
vn 0.0002224015625 0.6918519735 -0.7220393419
v -903.0115967 1710.012451 -461.2128296
vn -0.01849590614 0.6987814903 -0.7150959969
v -834.6799927 1756.956787 -416.2215576
vn 0.002228416735 0.7024847269 -0.7116953135
v -983.1444092 1731.737427 -440.3990784
vn -0.01293840725 0.6921173334 -0.7216690183
v -961.1511841 1690.621826 -479.7940369
vn -0.01128410641 0.6908515692 -0.7229085565
v -858.1799927 1624.41687 -543.2015381
vn 0.02789898962 0.6836892366 -0.7292397618
v -931.2987671 1754.839355 -418.2853394
vn -0.003540560137 0.7028285861 -0.711350441
v -931.5099487 1623.456787 -544.1715088
vn -0.008273568004 0.6728247404 -0.7397556305
v -960.0827026 1725.449341 -446.4290771
vn -5.637298455e-05 0.6917251348 -0.7221608758
v -928.133728 1727.26123 -444.690918
vn 2.229862184e-05 0.6917060614 -0.7221791148
v -969.6712036 1643.52063 -524.9140625
vn -0.01167148445 0.6892306209 -0.7244480252
v -908.6575317 1656.629272 -512.3565674
vn -0.06125799567 0.7101042867 -0.7014266849
v -941.0874023 1648.808105 -519.8490601
vn -0.01681648754 0.6978576183 -0.7160390615
v -952.4699707 1668.18689 -501.2915344
vn 4.402371997e-05 0.691767931 -0.7221198678
v -753.5150146 1624.964355 -543.7766113
vn 0.0001380556932 0.6756250858 -0.7372453809
v -588.5199585 1756.956787 -416.2215576
vn -2.99477324e-05 0.7024556994 -0.7117275
v -596.9500122 1624.41687 -543.2015381
vn 0.008910837583 0.6164789796 -0.7873209119
v -700.9399414 1756.956787 -416.2215576
vn 0.0009214734891 0.701521039 -0.7126481533
v -513.0599976 1756.956787 -416.2215576
vn 0.02568622679 0.7435784936 -0.6681551337
v -487.6800232 1624.41687 -543.2015381
vn 0.1683039069 0.6665195823 -0.7262405753
v -538.7600098 1694.546753 -476.0315552
vn -1.855869536e-17 0.6917990446 -0.7220900655
v -682.9000244 1653.236938 -515.621521
vn 0.005071273074 0.6938619018 -0.7200902104
v -816.6400146 1653.236938 -515.621521
vn -0.007585907821 0.6924800873 -0.7213971019
v -471.6787415 1049.185181 -682.6416016
vn 0.06054876372 -0.105167821 0.9926095009
v -494.8649902 1072.466187 -687.1427612
vn -0.9890840054 0.1201999336 -0.08523397893
v -473.2650452 1057.439331 -705.612793
vn 0.3958171606 0.06919667125 -0.9157186151
v -460.6834717 616.9092407 -683.8197021
vn 0.9895810485 -0.01752609946 0.1429060698
v -479.1418457 619.2692871 -672.6078491
vn -0.4321275055 0.1851604581 0.8825992346
v -488.2506409 623.9292603 -699.8828735
vn -0.9475498796 -0.1257704943 -0.293821454
v -467.0574951 643.2355347 -707.635376
vn 0.4977913499 -0.02866490372 -0.8668230176
v -494.8500061 592.5505371 -667.3040771
vn -0.7501288652 0.4776526392 0.4573342502
# mm_gid 0
g mmGroup0
f 1//1 2//2 3//3 
f 4//4 5//5 6//6 
f 7//7 6//6 5//5 
f 8//8 9//9 10//10 
f 11//11 2//2 12//12 
f 9//9 12//12 2//2 
f 10//10 9//9 13//13 
f 11//11 14//14 15//15 
f 16//16 15//15 14//14 
f 16//16 17//17 18//18 
f 19//19 18//18 17//17 
f 20//20 21//21 22//22 
f 23//23 22//22 21//21 
f 24//24 25//25 26//26 
f 27//27 26//26 25//25 
f 24//24 28//28 29//29 
f 8//8 29//29 28//28 
f 27//27 4//4 30//30 
f 19//19 30//30 4//4 
f 16//16 14//14 31//31 
f 16//16 32//32 17//17 
f 8//8 33//33 29//29 
f 19//19 17//17 32//32 
f 34//34 35//35 36//36 
f 37//37 36//36 35//35 
f 19//19 38//38 30//30 
f 2//2 13//13 9//9 
f 39//39 40//40 41//41 
f 40//40 42//42 41//41 
f 39//39 43//43 6//6 
f 44//44 43//43 39//39 
f 45//45 6//6 43//43 
f 42//42 46//46 41//41 
f 46//46 47//47 41//41 
f 48//48 46//46 42//42 
f 49//49 40//40 6//6 
f 40//40 39//39 6//6 
f 49//49 50//50 40//40 
f 51//51 50//50 49//49 
f 52//52 48//48 53//53 
f 54//54 55//55 7//7 
f 54//54 56//56 55//55 
f 49//49 7//7 55//55 
f 55//55 51//51 49//49 
f 7//7 49//49 6//6 
f 39//39 57//57 44//44 
f 39//39 58//58 57//57 
f 39//39 59//59 58//58 
f 60//60 61//61 39//39 
f 59//59 39//39 61//61 
f 62//62 58//58 59//59 
f 61//61 63//63 59//59 
f 64//64 62//62 63//63 
f 62//62 59//59 63//63 
f 65//65 64//64 63//63 
f 66//66 65//65 63//63 
f 39//39 41//41 60//60 
f 41//41 67//67 60//60 
f 68//68 69//69 67//67 
f 41//41 47//47 70//70 
f 71//71 70//70 47//47 
f 60//60 67//67 69//69 
f 67//67 41//41 72//72 
f 70//70 72//72 41//41 
f 6//6 18//18 4//4 
f 18//18 6//6 45//45 
f 45//45 73//73 15//15 
f 45//45 15//15 18//18 
f 2//2 10//10 13//13 
f 74//74 66//66 75//75 
f 75//75 66//66 76//76 
f 69//69 68//68 66//66 
f 76//76 66//66 68//68 
f 66//66 74//74 65//65 
f 77//77 78//78 79//79 
f 79//79 80//80 77//77 
f 81//81 82//82 83//83 
f 5//5 84//84 7//7 
f 5//5 20//20 84//84 
f 20//20 83//83 84//84 
f 84//84 82//82 7//7 
f 82//82 84//84 83//83 
f 5//5 85//85 86//86 
f 87//87 20//20 5//5 
f 21//21 5//5 88//88 
f 21//21 87//87 5//5 
f 54//54 7//7 82//82 
f 86//86 88//88 5//5 
f 77//77 54//54 81//81 
f 4//4 85//85 5//5 
f 82//82 81//81 54//54 
f 81//81 78//78 77//77 
f 56//56 54//54 77//77 
f 78//78 52//52 79//79 
f 52//52 78//78 81//81 
f 50//50 51//51 89//89 
f 55//55 89//89 51//51 
f 89//89 53//53 50//50 
f 90//90 52//52 53//53 
f 90//90 53//53 89//89 
f 80//80 79//79 90//90 
f 52//52 90//90 79//79 
f 91//91 92//92 72//72 
f 91//91 72//72 93//93 
f 67//67 72//72 92//92 
f 47//47 94//94 71//71 
f 71//71 95//95 70//70 
f 95//95 96//96 88//88 
f 72//72 70//70 95//95 
f 95//95 71//71 96//96 
f 95//95 97//97 98//98 
f 21//21 88//88 96//96 
f 97//97 95//95 88//88 
f 99//99 98//98 97//97 
f 98//98 72//72 95//95 
f 100//100 101//101 102//102 
f 103//103 101//101 100//100 
f 104//104 101//101 105//105 
f 105//105 101//101 106//106 
f 104//104 102//102 101//101 
f 103//103 106//106 101//101 
f 93//93 107//107 76//76 
f 103//103 76//76 107//107 
f 103//103 107//107 106//106 
f 93//93 106//106 107//107 
f 93//93 68//68 92//92 
f 67//67 92//92 68//68 
f 76//76 68//68 93//93 
f 108//108 93//93 92//92 
f 109//109 108//108 110//110 
f 92//92 111//111 110//110 
f 92//92 110//110 108//108 
f 109//109 110//110 111//111 
f 48//48 112//112 46//46 
f 111//111 46//46 112//112 
f 109//109 111//111 112//112 
f 113//113 83//83 20//20 
f 113//113 81//81 83//83 
f 113//113 112//112 81//81 
f 48//48 52//52 112//112 
f 52//52 81//81 112//112 
f 102//102 114//114 20//20 
f 102//102 104//104 114//114 
f 113//113 114//114 104//104 
f 113//113 20//20 114//114 
f 103//103 75//75 76//76 
f 111//111 115//115 46//46 
f 111//111 92//92 115//115 
f 20//20 116//116 102//102 
f 108//108 91//91 93//93 
f 109//109 91//91 108//108 
f 112//112 94//94 109//109 
f 23//23 21//21 104//104 
f 106//106 117//117 105//105 
f 105//105 23//23 104//104 
f 106//106 93//93 117//117 
f 113//113 94//94 112//112 
f 113//113 21//21 94//94 
f 113//113 104//104 21//21 
f 64//64 118//118 10//10 
f 118//118 64//64 65//65 
f 1//1 62//62 64//64 
f 1//1 58//58 62//62 
f 10//10 2//2 64//64 
f 1//1 64//64 2//2 
f 119//119 45//45 43//43 
f 57//57 1//1 44//44 
f 73//73 45//45 2//2 
f 119//119 43//43 1//1 
f 44//44 1//1 43//43 
f 1//1 57//57 58//58 
f 120//120 74//74 75//75 
f 120//120 75//75 121//121 
f 118//118 122//122 123//123 
f 123//123 122//122 85//85 
f 86//86 85//85 122//122 
f 97//97 120//120 121//121 
f 97//97 121//121 99//99 
f 65//65 74//74 122//122 
f 88//88 86//86 120//120 
f 118//118 65//65 122//122 
f 88//88 120//120 97//97 
f 122//122 120//120 86//86 
f 122//122 74//74 120//120 
f 105//105 117//117 124//124 
f 23//23 105//105 124//124 
f 103//103 124//124 117//117 
f 100//100 102//102 124//124 
f 103//103 100//100 124//124 
f 125//125 24//24 126//126 
f 24//24 26//26 126//126 
f 28//28 24//24 125//125 
f 127//127 24//24 33//33 
f 25//25 24//24 127//127 
f 23//23 124//124 102//102 
f 24//24 29//29 33//33 
f 27//27 30//30 38//38 
f 27//27 126//126 26//26 
f 4//4 27//27 25//25 
f 102//102 116//116 23//23 
f 20//20 22//22 116//116 
f 126//126 27//27 38//38 
f 23//23 116//116 22//22 
f 123//123 85//85 25//25 
f 85//85 4//4 25//25 
f 127//127 123//123 25//25 
f 33//33 118//118 123//123 
f 33//33 123//123 127//127 
f 103//103 117//117 121//121 
f 93//93 99//99 117//117 
f 99//99 121//121 117//117 
f 93//93 98//98 99//99 
f 121//121 75//75 103//103 
f 10//10 118//118 8//8 
f 33//33 8//8 118//118 
f 93//93 72//72 98//98 
f 28//28 128//128 8//8 
f 8//8 128//128 9//9 
f 32//32 129//129 130//130 
f 28//28 125//125 130//130 
f 28//28 130//130 128//128 
f 38//38 32//32 126//126 
f 125//125 126//126 32//32 
f 129//129 32//32 31//31 
f 32//32 130//130 125//125 
f 128//128 130//130 129//129 
f 96//96 94//94 21//21 
f 71//71 94//94 96//96 
f 18//18 19//19 4//4 
f 21//21 20//20 87//87 
f 38//38 19//19 32//32 
f 109//109 94//94 47//47 
f 109//109 47//47 46//46 
f 109//109 46//46 115//115 
f 15//15 16//16 18//18 
f 32//32 16//16 31//31 
f 109//109 131//131 91//91 
f 11//11 31//31 14//14 
f 15//15 73//73 11//11 
f 73//73 2//2 11//11 
f 129//129 31//31 11//11 
f 11//11 12//12 129//129 
f 109//109 115//115 131//131 
f 92//92 91//91 131//131 
f 92//92 131//131 115//115 
f 9//9 129//129 12//12 
f 128//128 129//129 9//9 
f 34//34 132//132 133//133 
f 34//34 133//133 35//35 
f 37//37 35//35 133//133 
f 37//37 133//133 132//132 
f 36//36 37//37 60//60 
f 63//63 69//69 66//66 
f 36//36 60//60 69//69 
f 61//61 60//60 37//37 
f 37//37 63//63 61//61 
f 36//36 69//69 134//134 
f 134//134 135//135 36//36 
f 34//34 36//36 135//135 
f 136//136 134//134 69//69 
f 48//48 34//34 137//137 
f 137//137 34//34 135//135 
f 137//137 53//53 48//48 
f 56//56 90//90 89//89 
f 2//2 45//45 3//3 
f 138//138 139//139 140//140 
f 77//77 80//80 90//90 
f 90//90 56//56 77//77 
f 89//89 55//55 56//56 
f 1//1 3//3 119//119 
f 37//37 141//141 138//138 
f 137//137 135//135 140//140 
f 137//137 140//140 139//139 
f 137//137 139//139 132//132 
f 37//37 132//132 142//142 
f 139//139 138//138 143//143 
f 3//3 45//45 119//119 
f 139//139 142//142 132//132 
f 142//142 144//144 143//143 
f 142//142 141//141 37//37 
f 143//143 141//141 142//142 
f 139//139 143//143 144//144 
f 138//138 140//140 135//135 
f 37//37 138//138 135//135 
f 145//145 136//136 69//69 
f 69//69 63//63 145//145 
f 137//137 40//40 50//50 
f 137//137 132//132 40//40 
f 137//137 50//50 53//53 
f 132//132 48//48 42//42 
f 132//132 42//42 40//40 
f 34//34 48//48 132//132 
f 134//134 145//145 63//63 
f 145//145 134//134 136//136 
f 146//146 147//147 148//148 
f 149//149 135//135 134//134 
f 149//149 150//150 135//135 
f 151//151 146//146 148//148 
f 148//148 152//152 134//134 
f 134//134 152//152 149//149 
f 153//153 146//146 151//151 
f 150//150 154//154 155//155 
f 135//135 150//150 156//156 
f 157//157 147//147 146//146 
f 157//157 158//158 147//147 
f 147//147 158//158 159//159 
f 147//147 152//152 148//148 
f 153//153 135//135 156//156 
f 153//153 160//160 135//135 
f 161//161 162//162 163//163 
f 163//163 160//160 148//148 
f 154//154 150//150 149//149 
f 164//164 161//161 134//134 
f 63//63 164//164 134//134 
f 161//161 163//163 134//134 
f 163//163 148//148 134//134 
f 165//165 164//164 63//63 
f 164//164 166//166 161//161 
f 37//37 165//165 63//63 
f 162//162 166//166 165//165 
f 162//162 165//165 37//37 
f 135//135 160//160 162//162 
f 135//135 162//162 37//37 
f 153//153 151//151 160//160 
f 160//160 167//167 162//162 
f 151//151 168//168 160//160 
f 143//143 169//169 141//141 
f 138//138 169//169 143//143 
f 138//138 170//170 169//169 
f 141//141 170//170 138//138 
f 141//141 171//171 170//170 
f 141//141 169//169 171//171 
f 142//142 172//172 173//173 
f 173//173 144//144 142//142 
f 165//165 166//166 164//164 
f 162//162 161//161 166//166 
f 168//168 148//148 160//160 
f 168//168 151//151 148//148 
f 159//159 150//150 147//147 
f 159//159 156//156 150//150 
f 158//158 156//156 159//159 
f 153//153 156//156 158//158 
f 147//147 150//150 155//155 
f 158//158 146//146 153//153 
f 155//155 152//152 147//147 
f 154//154 152//152 155//155 
f 154//154 149//149 152//152 
f 146//146 158//158 157//157 
f 167//167 163//163 162//162 
f 167//167 160//160 163//163 
f 171//171 174//174 170//170 
f 171//171 175//175 174//174 
f 171//171 172//172 175//175 
f 169//169 172//172 171//171 
f 169//169 173//173 172//172 
f 174//174 173//173 169//169 
f 174//174 169//169 170//170 
f 175//175 172//172 174//174 
f 174//174 142//142 139//139 
f 172//172 142//142 174//174 
f 139//139 176//176 174//174 
f 176//176 173//173 174//174 
f 176//176 139//139 144//144 
f 176//176 144//144 173//173 
